<svg xmlns="http://www.w3.org/2000/svg" height="300px" width="300px" fill="#FFFFFF" data-name="Layer 1" viewBox="0 0 100 100" x="0px" y="0px">
    <title>74</title>
    <path d="M85.071,38.1786a131.51584,131.51584,0,0,0-21.25635-.31641,32.9114,32.9114,0,0,1,3.17627-6.21191,34.2445,34.2445,0,0,0,1.79346-3.14453c3.34815-6.9082,2.67871-12.126,1.52735-15.28711a11.53527,11.53527,0,0,0-5.79883-6.72656,7.33684,7.33684,0,0,0-5.78809-.2793c-2.26221.8916-4.09424,2.96777-5.44482,6.17188-.38135.90429-.71631,1.81445-1.07129,2.77734-1.38819,3.76953-2.82422,7.667-7.05664,10.86426a40.73067,40.73067,0,0,1-3.91455,2.50586,50.483,50.483,0,0,0-8.80176,6.22363,18.50527,18.50527,0,0,0-3.26843,4.19208,3.50489,3.50489,0,0,0-3.47065-3.06458H8.51608A3.5161,3.5161,0,0,0,5,39.3993V89.88868a3.51607,3.51607,0,0,0,3.51611,3.51606h17.1806a3.50408,3.50408,0,0,0,3.47944-3.15223A76.69358,76.69358,0,0,1,39.2424,91.12c10.123,2.20508,17.18555,3.13574,23.11133,3.13574A57.14152,57.14152,0,0,0,77.78,92.03993C89.75607,88.871,94.54855,62.19325,94.99289,49.7704A11.30213,11.30213,0,0,0,85.071,38.1786ZM76.5007,87.20594c-10.10156,2.67481-17.36377,3.13086-36.19434-.9707a79.50626,79.50626,0,0,0-11.09356-.98431V47.29414a18.938,18.938,0,0,0,3.64728-4.805,18.35537,18.35537,0,0,1,2.90625-4.00488A45.70348,45.70348,0,0,1,43.778,32.83778a45.17059,45.17059,0,0,0,4.38721-2.82129c5.40381-4.082,7.251-9.09668,8.73535-13.126.32666-.88672.64258-1.74708.98682-2.56348.78564-1.86426,1.73389-3.09375,2.6709-3.46289a2.32524,2.32524,0,0,1,1.91162.1914,6.67662,6.67662,0,0,1,3.14355,3.874c.82129,2.2539,1.25733,6.06152-1.32812,11.39551A30.19923,30.19923,0,0,1,62.739,29.0204a37.73761,37.73761,0,0,0-3.80517,7.624c-.25782.71289-.99463,3.17871.3496,4.97266a3.40574,3.40574,0,0,0,2.9878,1.34375,131.66309,131.66309,0,0,1,22.22558.18457,6.27658,6.27658,0,0,1,5.499,6.44629C89.48263,63.94325,84.10031,85.1952,76.5007,87.20594Z" />
</svg>